<svg xmlns="http://www.w3.org/2000/svg" aria-hidden="true" style="width:0;height:0;position:absolute;overflow:hidden"><defs><symbol id="icon-up" viewBox="0 0 18 28"><path d="M16.797 20.5a.54.54 0 0 1-.156.359l-.781.781a.508.508 0 0 1-.359.156.54.54 0 0 1-.359-.156l-6.141-6.141L2.86 21.64c-.094.094-.234.156-.359.156s-.266-.063-.359-.156l-.781-.781c-.094-.094-.156-.234-.156-.359s.063-.266.156-.359l7.281-7.281c.094-.094.234-.156.359-.156s.266.063.359.156l7.281 7.281a.536.536 0 0 1 .156.359zm0-6a.54.54 0 0 1-.156.359l-.781.781a.508.508 0 0 1-.359.156.54.54 0 0 1-.359-.156L9.001 9.499 2.86 15.64c-.094.094-.234.156-.359.156s-.266-.063-.359-.156l-.781-.781c-.094-.094-.156-.234-.156-.359s.063-.266.156-.359L8.642 6.86c.094-.094.234-.156.359-.156s.266.063.359.156l7.281 7.281a.536.536 0 0 1 .156.359z"/></symbol></defs></svg>